<?xml version="1.0" standalone="no"?>
<!DOCTYPE svg PUBLIC "-//W3C//DTD SVG 20010904//EN"
 "http://www.w3.org/TR/2001/REC-SVG-20010904/DTD/svg10.dtd">
<svg version="1.0" xmlns="http://www.w3.org/2000/svg"
 width="496.000000pt" height="496.000000pt" viewBox="0 0 496.000000 496.000000"
 preserveAspectRatio="xMidYMid meet">
<metadata>
Created by potrace 1.11, written by Peter Selinger 2001-2013
</metadata>
<g transform="translate(0.000000,496.000000) scale(0.100000,-0.100000)"
fill="#000000" stroke="none">
<path d="M2480 3720 l0 -1240 -1240 0 -1240 0 0 -1240 0 -1240 1240 0 1240 0
0 1240 0 1240 1240 0 1240 0 0 1240 0 1240 -1240 0 -1240 0 0 -1240z m611
1017 c43 -22 75 -48 100 -81 44 -58 59 -104 59 -184 0 -115 -91 -238 -200
-271 -20 -6 -65 -11 -98 -11 -115 0 -238 91 -271 200 -6 20 -11 65 -11 98 0
82 45 171 114 223 61 46 94 57 178 58 56 1 76 -4 129 -32z m1485 -1481 c107
-50 165 -136 172 -257 4 -67 1 -84 -20 -131 -51 -110 -137 -169 -259 -176 -67
-4 -84 -1 -131 20 -110 51 -169 137 -176 258 -5 82 7 123 54 192 74 107 240
150 360 94z m-3980 -985 c61 -28 124 -89 150 -146 31 -65 33 -180 5 -241 -28
-61 -89 -124 -146 -150 -65 -31 -180 -33 -241 -5 -61 28 -124 89 -150 146 -31
65 -33 180 -5 241 28 61 89 124 146 150 65 31 180 33 241 5z m768 -751 c106
-54 161 -155 154 -283 -9 -174 -134 -285 -311 -275 -174 9 -285 134 -275 311
6 121 78 223 181 261 65 24 190 17 251 -14z m750 -750 c106 -54 161 -155 154
-283 -9 -174 -134 -285 -311 -275 -174 9 -285 134 -275 311 6 121 78 223 181
261 65 24 190 17 251 -14z"/>
<path d="M1089 3997 c-70 -36 -128 -102 -148 -167 -6 -20 -11 -67 -11 -103 0
-87 44 -175 114 -228 59 -45 104 -59 189 -59 87 0 175 44 228 114 45 59 59
104 59 189 0 87 -44 175 -114 228 -59 45 -104 59 -189 59 -54 0 -76 -6 -128
-33z"/>
<path d="M2867 2276 c-94 -35 -164 -110 -188 -201 -26 -96 13 -231 84 -291 64
-54 106 -69 197 -69 68 0 93 5 126 22 63 34 97 66 129 125 27 47 30 63 30 138
0 75 -3 91 -30 138 -52 95 -130 143 -240 149 -44 2 -84 -2 -108 -11z"/>
<path d="M4343 2270 c-60 -24 -123 -81 -155 -142 -33 -61 -33 -194 0 -255 52
-98 137 -154 247 -161 123 -7 230 52 287 160 33 61 33 194 0 255 -29 55 -81
107 -135 135 -61 31 -175 35 -244 8z"/>
<path d="M2867 1536 c-121 -45 -196 -150 -197 -278 0 -112 62 -217 162 -270
61 -33 194 -33 255 0 98 52 154 137 161 247 7 123 -53 231 -160 286 -54 28
-166 36 -221 15z"/>
<path d="M4352 1533 c-65 -23 -147 -103 -171 -169 -42 -111 -21 -220 61 -309
112 -123 287 -129 413 -13 123 112 129 287 13 413 -80 87 -203 118 -316 78z"/>
<path d="M2867 786 c-121 -45 -196 -150 -197 -278 0 -112 62 -217 162 -270 61
-33 194 -33 255 0 98 52 154 137 161 247 7 123 -53 231 -160 286 -54 28 -166
36 -221 15z"/>
<path d="M4352 783 c-65 -23 -147 -103 -171 -169 -42 -111 -21 -220 61 -309
112 -123 287 -129 413 -13 123 112 129 287 13 413 -80 87 -203 118 -316 78z"/>
</g>
</svg>
